<mxfile host="app.diagrams.net" modified="2024-06-06T15:08:35.762Z" agent="Mozilla/5.0 (Windows NT 10.0; Win64; x64) AppleWebKit/537.36 (KHTML, like Gecko) Chrome/125.0.0.0 Safari/537.36 Edg/125.0.0.0" etag="89SDhqKh8UTb_jT0okp7" version="24.4.15" type="github">
  <diagram name="PÃ¡gina-1" id="fQfb6z8pGFLSN2UX-d-k">
    <mxGraphModel dx="746" dy="349" grid="0" gridSize="10" guides="1" tooltips="1" connect="1" arrows="1" fold="1" page="0" pageScale="1" pageWidth="827" pageHeight="1169" math="0" shadow="0">
      <root>
        <mxCell id="0" />
        <mxCell id="1" parent="0" />
      </root>
    </mxGraphModel>
  </diagram>
</mxfile>
